<svg width="399" height="40" viewBox="0 0 399 40" fill="none" xmlns="http://www.w3.org/2000/svg">
<mask id="path-1-outside-1" maskUnits="userSpaceOnUse" x="0.994141" y="0.540039" width="398" height="40" fill="black">
<rect fill="white" x="0.994141" y="0.540039" width="398" height="40"/>
<path d="M2.87414 33H16.9981V32.252L12.4221 31.68C11.1021 31.504 10.1341 30.492 10.1341 29.128V8.05204L28.3061 33H30.0661V5.98404C30.0661 4.66404 30.9901 3.56404 32.3101 3.38804L35.6541 2.94804V2.20004H21.5741V2.94804L26.1501 3.52004C27.4701 3.69604 28.4381 4.70804 28.4381 6.07204V26.4L14.1821 6.55604C11.2341 2.42004 8.15414 2.20004 1.99414 2.20004V2.94804C4.67814 3.34404 7.31814 4.35604 8.46214 6.38004V29.216C8.46214 30.536 7.53814 31.636 6.21814 31.812L2.87414 32.252V33Z"/>
<path d="M60.4691 33.704C69.7971 33.704 76.7051 27.192 76.7051 17.6C76.7051 8.00804 69.7971 1.54004 60.4691 1.54004C51.1411 1.54004 44.1891 8.00804 44.1891 17.6C44.1891 27.192 51.1411 33.704 60.4691 33.704ZM60.5131 32.164C52.4171 32.164 48.8531 25.168 48.8531 16.588C48.8531 8.58004 52.5931 3.08004 60.4251 3.08004C68.3451 3.08004 71.9971 9.94404 71.9971 18.26C71.9971 26.532 68.6531 32.164 60.5131 32.164Z"/>
<path d="M99.7539 18.128H100.546C105.078 30.668 112.822 36.3 117.266 39.072C111.018 30.536 107.806 24.904 104.946 17.732C110.314 16.808 113.262 14.3 113.262 9.94404C113.262 4.40004 108.246 2.20004 99.3139 2.20004H86.1139V2.94804L88.9299 3.30004C90.2499 3.47604 91.2179 4.48804 91.2179 5.85204V29.348C91.2179 30.712 90.2499 31.724 88.9299 31.9L86.1139 32.252V33H100.678V32.252L97.8619 31.9C96.5419 31.724 95.5739 30.712 95.5739 29.348V18.128H99.7539ZM95.5739 3.74004H100.414C106.398 3.74004 109.082 5.80804 109.082 10.164C109.082 14.52 106.09 16.588 99.7099 16.588H95.5739V3.74004Z"/>
<path d="M125.293 33H139.417C150.329 33 157.325 27.456 157.325 17.688C157.325 7.43604 150.329 2.20004 139.417 2.20004H125.293V2.94804L128.109 3.30004C129.429 3.47604 130.397 4.48804 130.397 5.85204V29.348C130.397 30.712 129.429 31.724 128.109 31.9L125.293 32.252V33ZM137.041 31.46C135.721 31.46 134.753 30.712 134.753 29.348V3.74004H139.065C145.753 3.74004 152.661 6.51204 152.661 17.688C152.661 28.028 146.545 31.46 139.065 31.46H137.041Z"/>
<path d="M167.007 33H181.571V32.252L178.755 31.9C177.435 31.724 176.467 30.712 176.467 29.348V5.85204C176.467 4.48804 177.435 3.47604 178.755 3.30004L181.571 2.94804V2.20004H167.007V2.94804L169.823 3.30004C171.143 3.47604 172.111 4.48804 172.111 5.85204V29.348C172.111 30.712 171.143 31.724 169.823 31.9L167.007 32.252V33Z"/>
<path d="M207.702 33.66C212.806 33.66 218.262 31.724 221.826 28.38V26.048C218.394 29.26 213.686 30.888 209.022 30.888C202.114 30.888 196.438 25.872 196.438 17.6C196.438 8.93204 200.398 3.08004 207.702 3.08004C215.006 3.08004 217.822 8.49204 216.854 17.996H217.91L220.55 6.24804C218.042 3.38804 211.222 1.54004 207.702 1.54004C198.066 1.54004 191.554 8.00804 191.554 17.6C191.554 27.236 198.11 33.66 207.702 33.66Z"/>
<path d="M264.496 18.128H265.288C269.82 30.668 277.564 36.3 282.008 39.072C275.76 30.536 272.548 24.904 269.688 17.732C275.056 16.808 278.004 14.3 278.004 9.94404C278.004 4.40004 272.988 2.20004 264.056 2.20004H250.856V2.94804L253.672 3.30004C254.992 3.47604 255.96 4.48804 255.96 5.85204V29.348C255.96 30.712 254.992 31.724 253.672 31.9L250.856 32.252V33H265.42V32.252L262.604 31.9C261.284 31.724 260.316 30.712 260.316 29.348V18.128H264.496ZM260.316 3.74004H265.156C271.14 3.74004 273.824 5.80804 273.824 10.164C273.824 14.52 270.832 16.588 264.452 16.588H260.316V3.74004Z"/>
<path d="M306.018 33.704C315.346 33.704 322.254 27.192 322.254 17.6C322.254 8.00804 315.346 1.54004 306.018 1.54004C296.69 1.54004 289.738 8.00804 289.738 17.6C289.738 27.192 296.69 33.704 306.018 33.704ZM306.062 32.164C297.966 32.164 294.402 25.168 294.402 16.588C294.402 8.58004 298.142 3.08004 305.974 3.08004C313.894 3.08004 317.546 9.94404 317.546 18.26C317.546 26.532 314.202 32.164 306.062 32.164Z"/>
<path d="M346.295 33.66C352.895 33.66 357.559 30.316 357.559 25.476C357.559 13.64 339.343 15.048 339.343 8.49204C339.343 5.36804 342.511 3.08004 347.219 3.08004C352.631 3.08004 354.655 5.98404 355.183 13.64H356.195L356.635 3.65204C354.039 2.50804 350.739 1.54004 347.219 1.54004C340.355 1.54004 336.087 4.62004 336.087 8.93204C336.087 20.416 354.391 18.612 354.391 26.136C354.391 29.656 350.783 32.12 346.735 32.12C341.059 32.12 338.771 29.084 337.715 20.372H336.703L335.823 30.8C338.859 32.472 341.675 33.66 346.295 33.66Z"/>
<path d="M368.565 33H396.505L397.825 22.616H397.077C394.393 29.568 392.545 31.46 388.629 31.46H380.313C378.993 31.46 378.025 30.712 378.025 29.348V18.128H388.365C389.553 18.128 390.741 18.964 390.829 20.108L391.313 25.256H392.061V9.90004H391.313L390.829 14.608C390.697 15.796 389.553 16.588 388.365 16.588H378.025V3.74004H387.749C391.005 3.74004 393.821 5.28004 395.581 12.628H396.329L395.449 2.20004H368.565V2.94804L371.381 3.30004C372.701 3.47604 373.669 4.48804 373.669 5.85204V29.348C373.669 30.712 372.701 31.724 371.381 31.9L368.565 32.252V33Z"/>
</mask>
<path d="M2.87414 33H16.9981V32.252L12.4221 31.68C11.1021 31.504 10.1341 30.492 10.1341 29.128V8.05204L28.3061 33H30.0661V5.98404C30.0661 4.66404 30.9901 3.56404 32.3101 3.38804L35.6541 2.94804V2.20004H21.5741V2.94804L26.1501 3.52004C27.4701 3.69604 28.4381 4.70804 28.4381 6.07204V26.4L14.1821 6.55604C11.2341 2.42004 8.15414 2.20004 1.99414 2.20004V2.94804C4.67814 3.34404 7.31814 4.35604 8.46214 6.38004V29.216C8.46214 30.536 7.53814 31.636 6.21814 31.812L2.87414 32.252V33Z" fill="black"/>
<path d="M60.4691 33.704C69.7971 33.704 76.7051 27.192 76.7051 17.6C76.7051 8.00804 69.7971 1.54004 60.4691 1.54004C51.1411 1.54004 44.1891 8.00804 44.1891 17.6C44.1891 27.192 51.1411 33.704 60.4691 33.704ZM60.5131 32.164C52.4171 32.164 48.8531 25.168 48.8531 16.588C48.8531 8.58004 52.5931 3.08004 60.4251 3.08004C68.3451 3.08004 71.9971 9.94404 71.9971 18.26C71.9971 26.532 68.6531 32.164 60.5131 32.164Z" fill="black"/>
<path d="M99.7539 18.128H100.546C105.078 30.668 112.822 36.3 117.266 39.072C111.018 30.536 107.806 24.904 104.946 17.732C110.314 16.808 113.262 14.3 113.262 9.94404C113.262 4.40004 108.246 2.20004 99.3139 2.20004H86.1139V2.94804L88.9299 3.30004C90.2499 3.47604 91.2179 4.48804 91.2179 5.85204V29.348C91.2179 30.712 90.2499 31.724 88.9299 31.9L86.1139 32.252V33H100.678V32.252L97.8619 31.9C96.5419 31.724 95.5739 30.712 95.5739 29.348V18.128H99.7539ZM95.5739 3.74004H100.414C106.398 3.74004 109.082 5.80804 109.082 10.164C109.082 14.52 106.09 16.588 99.7099 16.588H95.5739V3.74004Z" fill="black"/>
<path d="M125.293 33H139.417C150.329 33 157.325 27.456 157.325 17.688C157.325 7.43604 150.329 2.20004 139.417 2.20004H125.293V2.94804L128.109 3.30004C129.429 3.47604 130.397 4.48804 130.397 5.85204V29.348C130.397 30.712 129.429 31.724 128.109 31.9L125.293 32.252V33ZM137.041 31.46C135.721 31.46 134.753 30.712 134.753 29.348V3.74004H139.065C145.753 3.74004 152.661 6.51204 152.661 17.688C152.661 28.028 146.545 31.46 139.065 31.46H137.041Z" fill="black"/>
<path d="M167.007 33H181.571V32.252L178.755 31.9C177.435 31.724 176.467 30.712 176.467 29.348V5.85204C176.467 4.48804 177.435 3.47604 178.755 3.30004L181.571 2.94804V2.20004H167.007V2.94804L169.823 3.30004C171.143 3.47604 172.111 4.48804 172.111 5.85204V29.348C172.111 30.712 171.143 31.724 169.823 31.9L167.007 32.252V33Z" fill="black"/>
<path d="M207.702 33.66C212.806 33.66 218.262 31.724 221.826 28.38V26.048C218.394 29.26 213.686 30.888 209.022 30.888C202.114 30.888 196.438 25.872 196.438 17.6C196.438 8.93204 200.398 3.08004 207.702 3.08004C215.006 3.08004 217.822 8.49204 216.854 17.996H217.91L220.55 6.24804C218.042 3.38804 211.222 1.54004 207.702 1.54004C198.066 1.54004 191.554 8.00804 191.554 17.6C191.554 27.236 198.11 33.66 207.702 33.66Z" fill="black"/>
<path d="M264.496 18.128H265.288C269.82 30.668 277.564 36.3 282.008 39.072C275.76 30.536 272.548 24.904 269.688 17.732C275.056 16.808 278.004 14.3 278.004 9.94404C278.004 4.40004 272.988 2.20004 264.056 2.20004H250.856V2.94804L253.672 3.30004C254.992 3.47604 255.96 4.48804 255.96 5.85204V29.348C255.96 30.712 254.992 31.724 253.672 31.9L250.856 32.252V33H265.42V32.252L262.604 31.9C261.284 31.724 260.316 30.712 260.316 29.348V18.128H264.496ZM260.316 3.74004H265.156C271.14 3.74004 273.824 5.80804 273.824 10.164C273.824 14.52 270.832 16.588 264.452 16.588H260.316V3.74004Z" fill="black"/>
<path d="M306.018 33.704C315.346 33.704 322.254 27.192 322.254 17.6C322.254 8.00804 315.346 1.54004 306.018 1.54004C296.69 1.54004 289.738 8.00804 289.738 17.6C289.738 27.192 296.69 33.704 306.018 33.704ZM306.062 32.164C297.966 32.164 294.402 25.168 294.402 16.588C294.402 8.58004 298.142 3.08004 305.974 3.08004C313.894 3.08004 317.546 9.94404 317.546 18.26C317.546 26.532 314.202 32.164 306.062 32.164Z" fill="black"/>
<path d="M346.295 33.66C352.895 33.66 357.559 30.316 357.559 25.476C357.559 13.64 339.343 15.048 339.343 8.49204C339.343 5.36804 342.511 3.08004 347.219 3.08004C352.631 3.08004 354.655 5.98404 355.183 13.64H356.195L356.635 3.65204C354.039 2.50804 350.739 1.54004 347.219 1.54004C340.355 1.54004 336.087 4.62004 336.087 8.93204C336.087 20.416 354.391 18.612 354.391 26.136C354.391 29.656 350.783 32.12 346.735 32.12C341.059 32.12 338.771 29.084 337.715 20.372H336.703L335.823 30.8C338.859 32.472 341.675 33.66 346.295 33.66Z" fill="black"/>
<path d="M368.565 33H396.505L397.825 22.616H397.077C394.393 29.568 392.545 31.46 388.629 31.46H380.313C378.993 31.46 378.025 30.712 378.025 29.348V18.128H388.365C389.553 18.128 390.741 18.964 390.829 20.108L391.313 25.256H392.061V9.90004H391.313L390.829 14.608C390.697 15.796 389.553 16.588 388.365 16.588H378.025V3.74004H387.749C391.005 3.74004 393.821 5.28004 395.581 12.628H396.329L395.449 2.20004H368.565V2.94804L371.381 3.30004C372.701 3.47604 373.669 4.48804 373.669 5.85204V29.348C373.669 30.712 372.701 31.724 371.381 31.9L368.565 32.252V33Z" fill="black"/>
<path d="M2.87414 33H16.9981V32.252L12.4221 31.68C11.1021 31.504 10.1341 30.492 10.1341 29.128V8.05204L28.3061 33H30.0661V5.98404C30.0661 4.66404 30.9901 3.56404 32.3101 3.38804L35.6541 2.94804V2.20004H21.5741V2.94804L26.1501 3.52004C27.4701 3.69604 28.4381 4.70804 28.4381 6.07204V26.4L14.1821 6.55604C11.2341 2.42004 8.15414 2.20004 1.99414 2.20004V2.94804C4.67814 3.34404 7.31814 4.35604 8.46214 6.38004V29.216C8.46214 30.536 7.53814 31.636 6.21814 31.812L2.87414 32.252V33Z" stroke="black" stroke-width="2" mask="url(#path-1-outside-1)"/>
<path d="M60.4691 33.704C69.7971 33.704 76.7051 27.192 76.7051 17.6C76.7051 8.00804 69.7971 1.54004 60.4691 1.54004C51.1411 1.54004 44.1891 8.00804 44.1891 17.6C44.1891 27.192 51.1411 33.704 60.4691 33.704ZM60.5131 32.164C52.4171 32.164 48.8531 25.168 48.8531 16.588C48.8531 8.58004 52.5931 3.08004 60.4251 3.08004C68.3451 3.08004 71.9971 9.94404 71.9971 18.26C71.9971 26.532 68.6531 32.164 60.5131 32.164Z" stroke="black" stroke-width="2" mask="url(#path-1-outside-1)"/>
<path d="M99.7539 18.128H100.546C105.078 30.668 112.822 36.3 117.266 39.072C111.018 30.536 107.806 24.904 104.946 17.732C110.314 16.808 113.262 14.3 113.262 9.94404C113.262 4.40004 108.246 2.20004 99.3139 2.20004H86.1139V2.94804L88.9299 3.30004C90.2499 3.47604 91.2179 4.48804 91.2179 5.85204V29.348C91.2179 30.712 90.2499 31.724 88.9299 31.9L86.1139 32.252V33H100.678V32.252L97.8619 31.9C96.5419 31.724 95.5739 30.712 95.5739 29.348V18.128H99.7539ZM95.5739 3.74004H100.414C106.398 3.74004 109.082 5.80804 109.082 10.164C109.082 14.52 106.09 16.588 99.7099 16.588H95.5739V3.74004Z" stroke="black" stroke-width="2" mask="url(#path-1-outside-1)"/>
<path d="M125.293 33H139.417C150.329 33 157.325 27.456 157.325 17.688C157.325 7.43604 150.329 2.20004 139.417 2.20004H125.293V2.94804L128.109 3.30004C129.429 3.47604 130.397 4.48804 130.397 5.85204V29.348C130.397 30.712 129.429 31.724 128.109 31.9L125.293 32.252V33ZM137.041 31.46C135.721 31.46 134.753 30.712 134.753 29.348V3.74004H139.065C145.753 3.74004 152.661 6.51204 152.661 17.688C152.661 28.028 146.545 31.46 139.065 31.46H137.041Z" stroke="black" stroke-width="2" mask="url(#path-1-outside-1)"/>
<path d="M167.007 33H181.571V32.252L178.755 31.9C177.435 31.724 176.467 30.712 176.467 29.348V5.85204C176.467 4.48804 177.435 3.47604 178.755 3.30004L181.571 2.94804V2.20004H167.007V2.94804L169.823 3.30004C171.143 3.47604 172.111 4.48804 172.111 5.85204V29.348C172.111 30.712 171.143 31.724 169.823 31.9L167.007 32.252V33Z" stroke="black" stroke-width="2" mask="url(#path-1-outside-1)"/>
<path d="M207.702 33.66C212.806 33.66 218.262 31.724 221.826 28.38V26.048C218.394 29.26 213.686 30.888 209.022 30.888C202.114 30.888 196.438 25.872 196.438 17.6C196.438 8.93204 200.398 3.08004 207.702 3.08004C215.006 3.08004 217.822 8.49204 216.854 17.996H217.91L220.55 6.24804C218.042 3.38804 211.222 1.54004 207.702 1.54004C198.066 1.54004 191.554 8.00804 191.554 17.6C191.554 27.236 198.11 33.66 207.702 33.66Z" stroke="black" stroke-width="2" mask="url(#path-1-outside-1)"/>
<path d="M264.496 18.128H265.288C269.82 30.668 277.564 36.3 282.008 39.072C275.76 30.536 272.548 24.904 269.688 17.732C275.056 16.808 278.004 14.3 278.004 9.94404C278.004 4.40004 272.988 2.20004 264.056 2.20004H250.856V2.94804L253.672 3.30004C254.992 3.47604 255.96 4.48804 255.96 5.85204V29.348C255.96 30.712 254.992 31.724 253.672 31.9L250.856 32.252V33H265.42V32.252L262.604 31.9C261.284 31.724 260.316 30.712 260.316 29.348V18.128H264.496ZM260.316 3.74004H265.156C271.14 3.74004 273.824 5.80804 273.824 10.164C273.824 14.52 270.832 16.588 264.452 16.588H260.316V3.74004Z" stroke="black" stroke-width="2" mask="url(#path-1-outside-1)"/>
<path d="M306.018 33.704C315.346 33.704 322.254 27.192 322.254 17.6C322.254 8.00804 315.346 1.54004 306.018 1.54004C296.69 1.54004 289.738 8.00804 289.738 17.6C289.738 27.192 296.69 33.704 306.018 33.704ZM306.062 32.164C297.966 32.164 294.402 25.168 294.402 16.588C294.402 8.58004 298.142 3.08004 305.974 3.08004C313.894 3.08004 317.546 9.94404 317.546 18.26C317.546 26.532 314.202 32.164 306.062 32.164Z" stroke="black" stroke-width="2" mask="url(#path-1-outside-1)"/>
<path d="M346.295 33.66C352.895 33.66 357.559 30.316 357.559 25.476C357.559 13.64 339.343 15.048 339.343 8.49204C339.343 5.36804 342.511 3.08004 347.219 3.08004C352.631 3.08004 354.655 5.98404 355.183 13.64H356.195L356.635 3.65204C354.039 2.50804 350.739 1.54004 347.219 1.54004C340.355 1.54004 336.087 4.62004 336.087 8.93204C336.087 20.416 354.391 18.612 354.391 26.136C354.391 29.656 350.783 32.12 346.735 32.12C341.059 32.12 338.771 29.084 337.715 20.372H336.703L335.823 30.8C338.859 32.472 341.675 33.66 346.295 33.66Z" stroke="black" stroke-width="2" mask="url(#path-1-outside-1)"/>
<path d="M368.565 33H396.505L397.825 22.616H397.077C394.393 29.568 392.545 31.46 388.629 31.46H380.313C378.993 31.46 378.025 30.712 378.025 29.348V18.128H388.365C389.553 18.128 390.741 18.964 390.829 20.108L391.313 25.256H392.061V9.90004H391.313L390.829 14.608C390.697 15.796 389.553 16.588 388.365 16.588H378.025V3.74004H387.749C391.005 3.74004 393.821 5.28004 395.581 12.628H396.329L395.449 2.20004H368.565V2.94804L371.381 3.30004C372.701 3.47604 373.669 4.48804 373.669 5.85204V29.348C373.669 30.712 372.701 31.724 371.381 31.9L368.565 32.252V33Z" stroke="black" stroke-width="2" mask="url(#path-1-outside-1)"/>
</svg>
